<svg xmlns="http://www.w3.org/2000/svg" xmlns:xlink="http://www.w3.org/1999/xlink" width="24" height="27" version="1.1" viewBox="0 0 24 27"><title>ren-logo</title><desc>Created with Sketch.</desc><g id="Drafts-(not-for-devving)" fill="none" fill-rule="evenodd" stroke="none" stroke-width="1"><g id="view-graph" fill="#FFF" transform="translate(-100.000000, -10.000000)"><g id="menu---wallet-connected" transform="translate(80.000000, 1.000000)"><g id="Group-8"><g id="menu"><g id="ren-logo" transform="translate(20.000000, 9.000000)"><polygon id="Fill-1" points="11.95 .001 0 6.821 0 7.116 3.431 5.166 3.711 5.618 5.686 4.496 5.966 4.948 13.287 .769 12.748 .454 12.21 .159"/><polygon id="Fill-2" points="0 11.098 0 11.414 3.431 9.462 3.711 9.916 9.456 6.644 9.716 7.097 17.058 2.918 16.519 2.603 15.98 2.306 15.721 2.149"/><polygon id="Fill-3" points="0 13.246 0 13.561 3.431 11.59 3.711 12.064 11.333 7.707 11.591 8.162 18.933 3.983 18.395 3.686 17.856 3.372 17.597 3.214"/><polygon id="Fill-4" points="0 15.395 0 15.69 3.431 13.739 3.711 14.192 13.268 8.752 13.527 9.206 20.809 5.047 20.27 4.751 19.731 4.435 19.472 4.298"/><polygon id="Fill-5" points="0 17.543 0 17.838 3.431 15.888 3.711 16.341 15.143 9.817 15.402 10.29 22.684 6.131 22.145 5.815 21.627 5.52 21.348 5.363"/><polygon id="Fill-6" points="0 19.692 0 19.987 3.431 18.036 3.711 18.489 15.143 11.965 15.402 12.418 23.901 7.59 23.901 6.978 23.901 6.821 23.502 6.584 23.223 6.426"/><polygon id="Fill-7" points="1.476 21.288 3.392 20.204 3.671 20.658 15.083 14.134 15.362 14.607 23.901 9.718 23.901 9.108 23.901 8.496 23.901 8.2 1.217 21.13"/><polyline id="Fill-8" points="15.083 16.281 15.362 16.755 23.901 11.867 23.901 11.256 23.901 10.645 23.901 10.349 3.093 22.215 3.352 22.372 5.307 21.248 5.586 21.702"/><polygon id="Fill-9" points="5.227 23.437 7.202 22.313 7.462 22.786 15.083 18.43 15.362 18.883 23.901 14.015 23.901 13.404 23.901 12.793 23.901 12.478 4.967 23.279"/><polygon id="Fill-10" points="7.122 24.501 9.077 23.397 9.337 23.85 15.083 20.578 15.362 21.032 23.901 16.163 23.901 15.553 23.901 14.941 23.901 14.626 6.843 24.363"/><polygon id="Fill-11" points="8.719 25.427 8.998 25.585 10.953 24.462 11.212 24.935 15.083 22.727 15.362 23.18 23.902 18.312 23.902 17.701 23.902 17.07 23.902 16.775"/><polygon id="Fill-12" points="10.614 26.512 10.873 26.649 12.828 25.545 13.107 25.999 15.083 24.856 15.362 25.329 23.901 20.46 23.901 19.829 23.901 19.218 23.901 18.923"/><polygon id="Fill-13" points="0 8.969 0 9.265 3.431 7.314 3.711 7.767 7.581 5.559 7.841 6.013 15.183 1.834 14.644 1.538 14.105 1.224 13.826 1.065"/></g></g></g></g></g></g></svg>