<svg xmlns="http://www.w3.org/2000/svg" xmlns:xlink="http://www.w3.org/1999/xlink" width="121" height="52" version="1.1" viewBox="0 0 121 52"><title>ren-logo</title><desc>Created with Sketch.</desc><g id="RenBridge_v2" fill="none" fill-rule="evenodd" stroke="none" stroke-width="1"><g id="About-2-Light" fill="#3F3F41" fill-rule="nonzero" transform="translate(-494.000000, -689.000000)"><g id="Group-15" transform="translate(494.000000, 686.000000)"><g id="ren-logo" transform="translate(0.000000, 3.600000)"><path id="Shape" d="M97.8576,22.9248 C99.3648,24.8448 100.1328,27.5136 100.1328,30.9312 L85.92,30.9312 C86.0688,32.6928 86.544,34.056 87.36,34.9728 C88.2574859,35.9343427 89.536527,36.446311 90.8496,36.3696 C91.957606,36.4191454 93.0519642,36.1093579 93.9696,35.4864 C94.7039621,34.8560752 95.282286,34.0641657 95.6592,33.1728 L99.84,33.1728 C99.4329514,34.8897073 98.5099857,36.4408256 97.1952,37.6176 C95.424488,39.0866649 93.1780799,39.8582276 90.8784,39.7872 C88.0512,39.7872 85.8096,38.904 84.1584,37.1808 C82.3968,35.3808 81.5136,32.9184 81.5136,29.76 C81.5136,26.9328 82.32,24.5808 84.0096,22.6704 C85.6272,20.7216 87.8496,19.7904 90.696,19.7904 C93.8208,19.7664 96.2064,20.7984 97.8576,22.9248 Z M87.5376,24.3648 C86.6829288,25.3172464 86.1446115,26.5112711 85.9968,27.7824 L95.7648,27.7824 C95.4,24.696 93.744,23.1936 90.8064,23.1936 C89.6022275,23.1125064 88.4184244,23.5349207 87.5376,24.36 L87.5376,24.3648 Z"/><path id="Path" d="M120.48,27.5568 L120.48,39.2688 L116.2944,39.2688 L116.2944,27.9216 C116.2944,24.7968 114.8544,23.256 111.9744,23.256 C110.95841,23.2500962 109.981488,23.6470785 109.2576,24.36 C108.332003,25.2881821 107.78892,26.5302473 107.736,27.84 L107.736,39.264 L103.5504,39.264 L103.5504,20.2848 L107.736,20.2848 L107.736,22.488 C108.414627,21.6443665 109.265608,20.9553997 110.232,20.4672 C111.202184,19.9913275 112.27155,19.7527766 113.352,19.7712 C118.08,19.7664 120.48,22.3392 120.48,27.5568 Z"/><path id="Shape" d="M80.2944,39.2736 L72.7824,28.3776 C74.1745619,28.1754084 75.4943562,27.6293435 76.6224,26.7888 C78.24,25.4688 79.0848,23.5584 79.0848,21.0576 L79.0848,20.5776 C79.0848,18.0816 78.24,16.1712 76.6224,14.8464 C75.0816,13.6368 72.9504,13.0464 70.2672,13.0464 L58.56,13.0464 L58.56,39.2688 L62.88,39.2688 L62.88,28.584 L67.4736,28.584 L74.808,39.2736 L80.2944,39.2736 Z M62.88,16.7184 L69.6768,16.7184 C71.3664,16.7184 72.6528,17.088 73.5168,17.784 C74.3379222,18.5719185 74.7788565,19.6760039 74.7264,20.8128 C74.7788565,21.9495961 74.3379222,23.0536815 73.5168,23.8416 C72.6336,24.5376 71.352,24.9072 69.6768,24.9072 L62.88,24.9072 L62.88,16.7184 Z"/><polygon id="Path" points="7.022 10.8 10.8 8.63 11.309 9.504 25.234 1.474 24.216 .888 23.194 .293 22.685 0 0 13.104 0 13.69 6.514 9.922"/><polygon id="Path" points="7.022 19.051 17.938 12.744 18.446 13.632 32.371 5.597 31.354 5.002 30.331 4.416 29.822 4.128 0 21.346 0 21.931 6.514 18.163"/><polygon id="Path" points="7.022 23.174 21.504 14.813 22.018 15.691 35.938 7.646 34.92 7.07 33.902 6.475 33.389 6.182 0 25.459 0 26.054 6.514 22.291"/><polygon id="Path" points="7.022 27.293 25.176 16.814 25.69 17.693 39.509 9.715 38.491 9.12 37.469 8.534 36.96 8.242 0 29.587 0 30.173 6.514 26.405"/><polygon id="Path" points="7.022 31.406 28.747 18.869 29.256 19.757 43.075 11.77 42.058 11.189 41.04 10.594 40.526 10.301 0 33.701 0 34.286 6.514 30.528"/><polygon id="Path" points="44.606 12.658 44.098 12.36 0 37.829 0 38.414 6.514 34.656 7.022 35.534 28.747 22.997 29.256 23.875 45.37 14.578 45.37 13.397 45.37 13.104"/><polygon id="Path" points="2.794 40.915 6.446 38.808 6.955 39.686 28.642 27.168 29.15 28.056 45.37 18.691 45.37 17.51 45.37 16.33 45.37 15.744 2.294 40.622"/><polyline id="Path" points="28.642 31.296 29.15 32.184 45.37 22.819 45.37 21.638 45.37 20.458 45.37 19.872 5.861 42.682 6.374 42.974 10.08 40.829 10.594 41.717"/><polygon id="Path" points="9.941 45.038 13.651 42.888 14.16 43.776 28.642 35.41 29.15 36.298 45.37 26.933 45.37 25.752 45.37 24.581 45.37 23.99 9.422 44.736"/><polygon id="Path" points="13.507 47.098 17.218 44.957 17.731 45.835 28.642 39.538 29.15 40.416 45.37 31.051 45.37 29.88 45.37 28.699 45.37 28.114 12.998 46.805"/><polygon id="Path" points="16.57 48.864 17.078 49.157 20.798 47.011 21.298 47.899 28.642 43.651 29.15 44.539 45.37 35.174 45.37 33.994 45.37 32.813 45.37 32.227"/><polygon id="Path" points="20.645 51.226 24.355 49.07 24.864 49.958 28.642 47.77 29.15 48.658 45.37 39.302 45.37 38.122 45.37 36.941 45.37 36.355 20.136 50.933"/><polygon id="Path" points="28.805 3.533 27.782 2.947 27.782 2.947 26.765 2.362 26.256 2.059 0 17.218 0 17.803 6.514 14.05 7.022 14.923 14.366 10.685 14.89 11.573"/></g></g></g></g></svg>