<svg xmlns="http://www.w3.org/2000/svg" width="24" height="24" version="1.1" viewBox="0 0 24 24"><path id="Combined-Shape" fill-rule="nonzero" d="M5.92857143,15.6 L5.92857143,18 L3.5,18 L3.5,15.6 L5.92857143,15.6 Z M20.5,15.6 L20.5,18 L8.35714286,18 L8.35714286,15.6 L20.5,15.6 Z M5.92857143,10.8 L5.92857143,13.2 L3.5,13.2 L3.5,10.8 L5.92857143,10.8 Z M20.5,10.8 L20.5,13.2 L8.35714286,13.2 L8.35714286,10.8 L20.5,10.8 Z M5.92857143,6 L5.92857143,8.4 L3.5,8.4 L3.5,6 L5.92857143,6 Z M20.5,6 L20.5,8.4 L8.35714286,8.4 L8.35714286,6 L20.5,6 Z"/></svg>